<?xml version="1.0" encoding="utf-8"?>
<svg version="1.1" xmlns="http://www.w3.org/2000/svg" xmlns:xlink="http://www.w3.org/1999/xlink" x="0px" y="0px"
   viewBox="0 0 1485.2 666" style="enable-background:new 0 0 1485.2 666;" xml:space="preserve">
<style type="text/css">
  .st0{fill:#E2E8F0;}
</style>
<g transform="translate(0 518.624)">
  <g transform="translate(0 -518.624)">
    <path class="st0" d="M1046.1,665.6c-75.6,0-149.3-6.6-219.5-19.7c-80.8-15-153-37.9-214.7-68.1C377.6,463.4,159,513.5-5.3,570
      l-0.2-0.5c73.5-25.3,162.6-52,266.3-59.3c57.6-4,114.4-1.3,168.7,8c62.7,10.8,124.2,30.7,182.6,59.2
      c120.5,58.9,274.1,87.8,431.5,87.8c187.1,0,379.7-40.9,528.8-121l0.2,0.4c-70.1,37.7-149.9,67.2-237.1,87.8
      c-82.7,19.6-169.6,30.6-258.2,32.7C1066.9,665.4,1056.5,665.6,1046.1,665.6z"/>
  </g>
</g>
</svg>